<mxfile host="app.diagrams.net" modified="2024-05-08T15:01:53.659Z" agent="Mozilla/5.0 (Windows NT 10.0; Win64; x64) AppleWebKit/537.36 (KHTML, like Gecko) Chrome/122.0.0.0 Safari/537.36 OPR/108.0.0.0 (Edition 360-1)" etag="hn5k8ku2SQ2lKTe2bwt9" version="23.1.4" type="device">
  <diagram id="C5RBs43oDa-KdzZeNtuy" name="Page-1">
    <mxGraphModel dx="826" dy="471" grid="1" gridSize="10" guides="1" tooltips="1" connect="1" arrows="1" fold="1" page="1" pageScale="1" pageWidth="827" pageHeight="1169" math="0" shadow="0">
      <root>
        <mxCell id="WIyWlLk6GJQsqaUBKTNV-0" />
        <mxCell id="WIyWlLk6GJQsqaUBKTNV-1" parent="WIyWlLk6GJQsqaUBKTNV-0" />
        <mxCell id="23hYoejp4t34k2HJRZtn-6" style="edgeStyle=orthogonalEdgeStyle;rounded=0;orthogonalLoop=1;jettySize=auto;html=1;exitX=0.5;exitY=1;exitDx=0;exitDy=0;entryX=0.5;entryY=0;entryDx=0;entryDy=0;" edge="1" parent="WIyWlLk6GJQsqaUBKTNV-1" source="23hYoejp4t34k2HJRZtn-0" target="23hYoejp4t34k2HJRZtn-1">
          <mxGeometry relative="1" as="geometry" />
        </mxCell>
        <mxCell id="23hYoejp4t34k2HJRZtn-0" value="START" style="ellipse;whiteSpace=wrap;html=1;" vertex="1" parent="WIyWlLk6GJQsqaUBKTNV-1">
          <mxGeometry x="110" y="30" width="160" height="80" as="geometry" />
        </mxCell>
        <mxCell id="23hYoejp4t34k2HJRZtn-7" style="edgeStyle=orthogonalEdgeStyle;rounded=0;orthogonalLoop=1;jettySize=auto;html=1;entryX=0.5;entryY=0;entryDx=0;entryDy=0;" edge="1" parent="WIyWlLk6GJQsqaUBKTNV-1" source="23hYoejp4t34k2HJRZtn-1" target="23hYoejp4t34k2HJRZtn-2">
          <mxGeometry relative="1" as="geometry" />
        </mxCell>
        <mxCell id="23hYoejp4t34k2HJRZtn-1" value="&lt;div style=&quot;text-align: left;&quot;&gt;&lt;span style=&quot;background-color: initial;&quot;&gt;Console.Write(&quot;Введите количество элементов массива: &quot;)&lt;/span&gt;&lt;/div&gt;&lt;div style=&quot;text-align: left;&quot;&gt;&lt;span style=&quot;background-color: initial;&quot;&gt;int size = Convert.ToInt32(Console.ReadLine());&lt;/span&gt;&lt;/div&gt;&lt;div style=&quot;text-align: left;&quot;&gt;&lt;span style=&quot;background-color: initial;&quot;&gt;string[] firstArray = new string[size];&lt;/span&gt;&lt;/div&gt;&lt;div style=&quot;text-align: left;&quot;&gt;&lt;span style=&quot;background-color: initial;&quot;&gt;string[] secondArray = new string[fistArray.Length;&lt;/span&gt;&lt;/div&gt;" style="shape=parallelogram;perimeter=parallelogramPerimeter;whiteSpace=wrap;html=1;fixedSize=1;size=25;" vertex="1" parent="WIyWlLk6GJQsqaUBKTNV-1">
          <mxGeometry x="10" y="140" width="360" height="120" as="geometry" />
        </mxCell>
        <mxCell id="23hYoejp4t34k2HJRZtn-8" style="edgeStyle=orthogonalEdgeStyle;rounded=0;orthogonalLoop=1;jettySize=auto;html=1;exitX=0.5;exitY=1;exitDx=0;exitDy=0;" edge="1" parent="WIyWlLk6GJQsqaUBKTNV-1" source="23hYoejp4t34k2HJRZtn-2" target="23hYoejp4t34k2HJRZtn-3">
          <mxGeometry relative="1" as="geometry" />
        </mxCell>
        <mxCell id="23hYoejp4t34k2HJRZtn-2" value="creatArray(firstArray);" style="rounded=0;whiteSpace=wrap;html=1;" vertex="1" parent="WIyWlLk6GJQsqaUBKTNV-1">
          <mxGeometry x="30" y="330" width="320" height="60" as="geometry" />
        </mxCell>
        <mxCell id="23hYoejp4t34k2HJRZtn-9" style="edgeStyle=orthogonalEdgeStyle;rounded=0;orthogonalLoop=1;jettySize=auto;html=1;entryX=0.5;entryY=0;entryDx=0;entryDy=0;" edge="1" parent="WIyWlLk6GJQsqaUBKTNV-1" source="23hYoejp4t34k2HJRZtn-3" target="23hYoejp4t34k2HJRZtn-4">
          <mxGeometry relative="1" as="geometry" />
        </mxCell>
        <mxCell id="23hYoejp4t34k2HJRZtn-3" value="Print(firstArray);" style="rounded=0;whiteSpace=wrap;html=1;" vertex="1" parent="WIyWlLk6GJQsqaUBKTNV-1">
          <mxGeometry x="30" y="440" width="320" height="60" as="geometry" />
        </mxCell>
        <mxCell id="23hYoejp4t34k2HJRZtn-10" style="edgeStyle=orthogonalEdgeStyle;rounded=0;orthogonalLoop=1;jettySize=auto;html=1;entryX=0.5;entryY=0;entryDx=0;entryDy=0;" edge="1" parent="WIyWlLk6GJQsqaUBKTNV-1" source="23hYoejp4t34k2HJRZtn-4" target="23hYoejp4t34k2HJRZtn-5">
          <mxGeometry relative="1" as="geometry" />
        </mxCell>
        <mxCell id="23hYoejp4t34k2HJRZtn-4" value="PrintA(symbol(firstArray));" style="rounded=0;whiteSpace=wrap;html=1;" vertex="1" parent="WIyWlLk6GJQsqaUBKTNV-1">
          <mxGeometry x="30" y="554.5" width="320" height="60" as="geometry" />
        </mxCell>
        <mxCell id="23hYoejp4t34k2HJRZtn-5" value="END" style="ellipse;whiteSpace=wrap;html=1;" vertex="1" parent="WIyWlLk6GJQsqaUBKTNV-1">
          <mxGeometry x="75" y="660" width="230" height="80" as="geometry" />
        </mxCell>
        <mxCell id="23hYoejp4t34k2HJRZtn-11" value="&lt;div style=&quot;color: rgb(204, 204, 204); background-color: rgb(31, 31, 31); font-family: Consolas, &amp;quot;Courier New&amp;quot;, monospace; font-size: 14px; line-height: 19px;&quot;&gt;string[] &lt;span style=&quot;color: #dcdcaa;&quot;&gt;symbol&lt;/span&gt;(&lt;span style=&quot;color: #569cd6;&quot;&gt;string&lt;/span&gt;[] &lt;span style=&quot;color: #9cdcfe;&quot;&gt;firstArray&lt;/span&gt;)&lt;/div&gt;" style="rounded=1;whiteSpace=wrap;html=1;" vertex="1" parent="WIyWlLk6GJQsqaUBKTNV-1">
          <mxGeometry x="390" y="40" width="300" height="40" as="geometry" />
        </mxCell>
        <mxCell id="23hYoejp4t34k2HJRZtn-19" style="edgeStyle=orthogonalEdgeStyle;rounded=0;orthogonalLoop=1;jettySize=auto;html=1;entryX=0.5;entryY=0;entryDx=0;entryDy=0;" edge="1" parent="WIyWlLk6GJQsqaUBKTNV-1" source="23hYoejp4t34k2HJRZtn-12" target="23hYoejp4t34k2HJRZtn-13">
          <mxGeometry relative="1" as="geometry" />
        </mxCell>
        <mxCell id="23hYoejp4t34k2HJRZtn-12" value="int j =0;" style="shape=parallelogram;perimeter=parallelogramPerimeter;whiteSpace=wrap;html=1;fixedSize=1;" vertex="1" parent="WIyWlLk6GJQsqaUBKTNV-1">
          <mxGeometry x="450" y="120" width="180" height="60" as="geometry" />
        </mxCell>
        <mxCell id="23hYoejp4t34k2HJRZtn-20" value="" style="edgeStyle=orthogonalEdgeStyle;rounded=0;orthogonalLoop=1;jettySize=auto;html=1;" edge="1" parent="WIyWlLk6GJQsqaUBKTNV-1" source="23hYoejp4t34k2HJRZtn-13" target="23hYoejp4t34k2HJRZtn-15">
          <mxGeometry relative="1" as="geometry">
            <Array as="points">
              <mxPoint x="540" y="340" />
              <mxPoint x="540" y="340" />
            </Array>
          </mxGeometry>
        </mxCell>
        <mxCell id="23hYoejp4t34k2HJRZtn-24" value="yes" style="edgeLabel;html=1;align=center;verticalAlign=middle;resizable=0;points=[];" vertex="1" connectable="0" parent="23hYoejp4t34k2HJRZtn-20">
          <mxGeometry x="-0.16" y="-2" relative="1" as="geometry">
            <mxPoint as="offset" />
          </mxGeometry>
        </mxCell>
        <mxCell id="23hYoejp4t34k2HJRZtn-13" value="int i = 0; i &amp;lt; firstArray.Length; i++" style="rhombus;whiteSpace=wrap;html=1;" vertex="1" parent="WIyWlLk6GJQsqaUBKTNV-1">
          <mxGeometry x="435" y="220" width="210" height="80" as="geometry" />
        </mxCell>
        <mxCell id="23hYoejp4t34k2HJRZtn-21" value="" style="edgeStyle=orthogonalEdgeStyle;rounded=0;orthogonalLoop=1;jettySize=auto;html=1;" edge="1" parent="WIyWlLk6GJQsqaUBKTNV-1" source="23hYoejp4t34k2HJRZtn-15" target="23hYoejp4t34k2HJRZtn-16">
          <mxGeometry relative="1" as="geometry" />
        </mxCell>
        <mxCell id="23hYoejp4t34k2HJRZtn-15" value="if(firstArray[i].Length &amp;lt; 4)" style="shape=parallelogram;perimeter=parallelogramPerimeter;whiteSpace=wrap;html=1;fixedSize=1;" vertex="1" parent="WIyWlLk6GJQsqaUBKTNV-1">
          <mxGeometry x="414" y="350" width="250" height="50" as="geometry" />
        </mxCell>
        <mxCell id="23hYoejp4t34k2HJRZtn-22" value="" style="edgeStyle=orthogonalEdgeStyle;rounded=0;orthogonalLoop=1;jettySize=auto;html=1;" edge="1" parent="WIyWlLk6GJQsqaUBKTNV-1" source="23hYoejp4t34k2HJRZtn-16" target="23hYoejp4t34k2HJRZtn-17">
          <mxGeometry relative="1" as="geometry" />
        </mxCell>
        <mxCell id="23hYoejp4t34k2HJRZtn-16" value="&lt;div style=&quot;text-align: left;&quot;&gt;&lt;span style=&quot;background-color: initial;&quot;&gt;secondArray[j] = firstArray[i];&lt;/span&gt;&lt;/div&gt;&lt;div style=&quot;text-align: left;&quot;&gt;&lt;span style=&quot;background-color: initial;&quot;&gt;j++;&lt;/span&gt;&lt;/div&gt;" style="rounded=0;whiteSpace=wrap;html=1;" vertex="1" parent="WIyWlLk6GJQsqaUBKTNV-1">
          <mxGeometry x="420" y="430" width="240" height="60" as="geometry" />
        </mxCell>
        <mxCell id="23hYoejp4t34k2HJRZtn-23" style="edgeStyle=orthogonalEdgeStyle;rounded=0;orthogonalLoop=1;jettySize=auto;html=1;entryX=0;entryY=0.5;entryDx=0;entryDy=0;" edge="1" parent="WIyWlLk6GJQsqaUBKTNV-1" source="23hYoejp4t34k2HJRZtn-17" target="23hYoejp4t34k2HJRZtn-13">
          <mxGeometry relative="1" as="geometry">
            <Array as="points">
              <mxPoint x="405" y="570" />
              <mxPoint x="405" y="260" />
            </Array>
          </mxGeometry>
        </mxCell>
        <mxCell id="23hYoejp4t34k2HJRZtn-17" value="retirn secondArray" style="rounded=0;whiteSpace=wrap;html=1;" vertex="1" parent="WIyWlLk6GJQsqaUBKTNV-1">
          <mxGeometry x="425" y="540" width="230" height="60" as="geometry" />
        </mxCell>
        <mxCell id="23hYoejp4t34k2HJRZtn-25" value="void PrintA(string[] firsstArray)" style="shape=document;whiteSpace=wrap;html=1;boundedLbl=1;" vertex="1" parent="WIyWlLk6GJQsqaUBKTNV-1">
          <mxGeometry x="420" y="640" width="230" height="80" as="geometry" />
        </mxCell>
        <mxCell id="23hYoejp4t34k2HJRZtn-26" style="edgeStyle=orthogonalEdgeStyle;rounded=0;orthogonalLoop=1;jettySize=auto;html=1;entryX=1;entryY=0.388;entryDx=0;entryDy=0;entryPerimeter=0;" edge="1" parent="WIyWlLk6GJQsqaUBKTNV-1" source="23hYoejp4t34k2HJRZtn-13" target="23hYoejp4t34k2HJRZtn-25">
          <mxGeometry relative="1" as="geometry">
            <Array as="points">
              <mxPoint x="720" y="260" />
              <mxPoint x="720" y="671" />
            </Array>
          </mxGeometry>
        </mxCell>
        <mxCell id="23hYoejp4t34k2HJRZtn-28" value="No&lt;br&gt;" style="edgeLabel;html=1;align=center;verticalAlign=middle;resizable=0;points=[];" vertex="1" connectable="0" parent="23hYoejp4t34k2HJRZtn-26">
          <mxGeometry x="-0.1798" y="1" relative="1" as="geometry">
            <mxPoint as="offset" />
          </mxGeometry>
        </mxCell>
      </root>
    </mxGraphModel>
  </diagram>
</mxfile>
